# xmcd
#
# Track frame offsets:
#  150
#  20792
#  39185
#  53702
#  85367
#  102032
#  120740
#  138930
#  157105
#  186472
#  208410
#
# Disc length: 3132 seconds
#
# Revision: 2
# Processed by: cddbd v1.5.1PL2 Copyright (c) Steve Scherf et al.
# Submitted via: Collectorz.com_Music_Collector 6.11
#
DISCID=9b0c3a0b
DTITLE=Kevin Borich - Live At The Big Kahuna [CD2)
DYEAR=2002
DGENRE=Blues -  Blues Rock
TTITLE0=I'm Together
TTITLE1=Slinky
TTITLE2=300 Pounds Of Heavenly Joy
TTITLE3=Rescue Dream
TTITLE4=Cuckoo
TTITLE5=King Bee
TTITLE6=Morning
TTITLE7=Bell Hop Blues
TTITLE8=Kb's Boogie
TTITLE9=Sticks And Stones
TTITLE10=Too Late
EXTD=
EXTT0=
EXTT1=
EXTT2=
EXTT3=
EXTT4=
EXTT5=
EXTT6=
EXTT7=
EXTT8=
EXTT9=
EXTT10=
PLAYORDER=
